<svg width="32" height="32" viewBox="0 0 32 32" fill="none" xmlns="http://www.w3.org/2000/svg">
<rect width="32" height="32" rx="3" fill="#223622"/>
<path d="M17.9865 3C17.2302 3.39379 15.9582 4.237 16.3811 6.18196C16.6869 5.55691 16.8914 4.89805 17.2834 4.32536C17.0107 4.97986 16.8381 5.47073 16.7284 6.18305C17.3601 5.89834 18.4041 5.0584 17.9865 3Z" fill="#F3F7F3"/>
<path d="M25.7416 7.11571C24.4366 7.29242 22.5724 7.88365 22.5042 10.4198C23.2393 9.31592 23.7549 8.80213 24.3461 8.38762C23.6004 9.21883 23.3202 9.67916 22.8451 10.5584C23.8912 10.4209 25.405 9.60608 25.7416 7.11571Z" fill="#F3F7F3"/>
<path d="M7.19964 5.69982C8.08062 5.85035 9.41221 6.45904 9.4772 8.46071C8.9893 7.69168 8.61858 7.3197 8.13069 6.88664C8.75281 7.63386 9.05641 8.12037 9.28012 8.57852C8.45773 8.47162 7.08672 7.50514 7.19964 5.69982Z" fill="#F3F7F3"/>
<path d="M4.96973 12.1281C5.79212 11.9623 7.95249 11.8423 9.01137 14.3588L8.96876 14.4112C8.18792 13.6345 7.69789 13.3836 6.72317 12.9822C7.59349 13.448 8.15596 13.8538 8.76636 14.625C7.68298 14.7832 6.14366 14.3785 4.96973 12.1281Z" fill="#F3F7F3"/>
<path d="M18.1888 12.775C17.3664 13.2811 16.4205 14.2574 16.9701 16.0409C17.1949 15.333 17.3579 14.7963 17.6754 14.2639C17.5028 14.9664 17.3835 15.4246 17.1587 16.0933C17.8447 15.6558 18.9196 14.7046 18.1888 12.775Z" fill="#F3F7F3"/>
<path d="M18.3697 10.1002C17.4706 10.181 15.8588 10.4144 15.5552 12.4826C16.0708 11.8499 16.4426 11.5718 17.1073 11.2751C16.4756 11.7845 16.2509 12.0735 15.7363 12.6135C16.792 12.5862 18.0597 11.9557 18.3697 10.1002Z" fill="#F3F7F3"/>
<path d="M10.3259 13.2385C11.2389 13.5167 12.8517 14.217 12.7963 16.5841L12.7196 16.6016C12.1081 15.8205 11.9238 15.4965 11.4903 14.8497C11.763 15.6253 12.0282 16.1369 12.5758 16.8557C11.617 16.559 10.2034 15.7093 10.3259 13.2385Z" fill="#F3F7F3"/>
<path d="M12.6475 19.1029C11.9668 19.2796 11.0613 19.3996 9.83303 19.8283C10.7396 19.1967 11.5013 18.9622 12.623 18.7385C11.8006 18.3327 9.6839 17.9946 8.14458 20.6322C9.28229 21.0555 11.0229 21.1275 12.4067 19.4628C12.5026 19.3428 12.6155 19.1836 12.6475 19.1029Z" fill="#F3F7F3"/>
<path d="M27.0303 11.8292C25.8734 11.2423 24.0806 10.7438 22.5178 12.0539C21.949 12.5459 21.2874 13.1589 20.8528 13.3934C21.4856 12.307 22.4603 10.8202 20.8997 7.86838C19.7023 9.23301 19.1686 10.7994 20.3095 12.7935C20.7388 12.0321 20.8262 10.9991 20.8528 9.87006C20.9583 11.2347 20.6291 12.8677 20.008 13.7818C19.3465 14.5497 17.8114 16.3256 17.1265 18.0567C17.0466 18.2727 17.6293 19.2556 17.8455 20.0093L17.9222 19.969C17.9766 18.0469 19.192 15.8369 21.0435 13.9105C22.2717 12.7411 23.5565 12.3626 24.8359 12.3059C23.778 12.6549 22.8971 12.8502 22.0299 13.5723C23.2049 14.1679 25.0819 14.0621 26.7193 12.0986C26.8641 11.9263 26.9877 11.8826 27.0303 11.8292Z" fill="#F3F7F3"/>
<path d="M18.306 26.0515L18.2261 24.0443C18.2261 22.1867 17.8437 21.1395 17.294 19.7159C16.6782 18.1571 15.238 14.997 15.2572 12.5502C15.2753 10.1984 16.3491 8.38327 18.8748 6.97828C17.8042 7.69495 16.9808 8.33527 16.5089 9.20794C17.9608 9.25266 19.8059 8.55453 20.7614 5.65728C19.0282 5.59729 17.5379 5.93653 16.5898 7.33171C16.0636 8.07675 15.8686 8.66907 15.4724 9.26248C15.5405 7.81604 16.2788 5.9169 14.6915 4.14103C14.1695 3.5607 13.6124 3.09601 13.5772 3.07528C13.0829 4.27738 12.5386 6.37396 13.8467 7.91421C14.2015 8.34509 14.7501 8.56762 14.7501 8.56762C14.7991 7.2019 14.3112 5.9878 14.1514 5.08896C14.8087 6.15688 15.1219 7.33825 15.0718 8.60471C15.0292 9.64209 14.1802 10.9871 14.4465 14.3927C13.4707 12.7019 12.006 11.3634 11.3178 9.51664C11.0376 8.77161 11.0131 7.85313 11.1569 6.69793C11.1889 7.68841 11.2709 8.60144 11.6768 9.61809C12.5492 8.49235 12.8305 6.81793 11.0078 4.55991C10.13 5.88963 9.79445 7.2259 10.5508 8.88396C10.9396 9.72826 11.0898 10.1111 11.37 10.7046C10.3537 9.9737 9.64851 9.07595 7.76511 9.16758C7.18347 9.19703 6.3941 9.35956 6.17572 9.44138C7.12381 11.1311 8.43197 12.1783 11.239 11.8892C10.7511 11.118 9.2469 10.4984 8.24874 10.1951C9.38539 10.3097 10.9758 10.9664 11.6587 11.6492C12.953 12.968 14.2526 15.9809 15.4095 18.4833C15.9571 19.6865 16.9009 20.3879 17.5145 22.0328C18.2133 23.9385 18.0599 26.5511 15.8143 29L15.8644 28.9989H20.8669V28.9334C19.4746 28.6553 18.8376 28.123 18.306 26.0515Z" fill="#F3F7F3"/>
<path d="M5.08476 16.2885C6.04883 15.5304 7.38042 15.0559 8.79404 15.4617C9.57382 15.7038 10.2726 16.2318 10.8532 16.5394C12.8314 17.2986 17.5197 19.1356 17.5197 24.0727C17.5197 26.3405 16.2936 28.2309 15.1825 28.9978L12.3531 28.9934L12.3521 28.9225C14.5827 28.3237 15.876 26.1933 15.876 23.7193C15.876 22.1332 14.9801 20.3082 13.9212 19.4639C12.0964 17.9695 10.6157 16.3485 7.42836 16.3747C8.3935 16.3747 9.68567 16.6638 10.3824 17.2735C9.57702 17.736 8.91122 17.8386 8.30082 17.8048C6.94899 17.6771 5.9455 16.895 5.08476 16.2885Z" fill="#F3F7F3"/>
</svg>
