<svg width="163" height="80" viewBox="0 0 163 80" fill="none" xmlns="http://www.w3.org/2000/svg">
<path d="M35.0426 7C33.1227 7.99962 29.8939 10.1401 30.9675 15.0773C31.7436 13.4906 32.2628 11.8181 33.2579 10.3644C32.5656 12.0258 32.1276 13.2719 31.849 15.08C33.4526 14.3573 36.1027 12.2252 35.0426 7Z" fill="#2A332F"/>
<path d="M54.7286 17.4476C51.416 17.8962 46.6837 19.397 46.5107 25.835C48.3765 23.0327 49.6854 21.7285 51.1862 20.6763C49.2932 22.7863 48.5821 23.9548 47.376 26.1867C50.0315 25.8378 53.8741 23.7693 54.7286 17.4476Z" fill="#2A332F"/>
<path d="M7.66055 13.8534C9.89689 14.2355 13.2771 15.7806 13.442 20.8618C12.2035 18.9096 11.2625 17.9654 10.024 16.8661C11.6032 18.7629 12.3739 19.9979 12.9418 21.1609C10.8542 20.8895 7.37391 18.4361 7.66055 13.8534Z" fill="#2A332F"/>
<path d="M2 30.1713C4.08761 29.7504 9.57164 29.4458 12.2596 35.834L12.1514 35.9669C10.1693 33.9954 8.92534 33.3585 6.45104 32.3395C8.66034 33.5218 10.0881 34.5519 11.6376 36.5096C8.88749 36.9111 4.97998 35.8838 2 30.1713Z" fill="#2A332F"/>
<path d="M35.5562 31.8134C33.4686 33.0982 31.0673 35.5765 32.4626 40.1039C33.0332 38.3068 33.4469 36.9444 34.2528 35.5931C33.8147 37.3764 33.5118 38.5394 32.9412 40.2368C34.6827 39.1264 37.4112 36.7118 35.5562 31.8134Z" fill="#2A332F"/>
<path d="M36.0153 25.0237C33.733 25.2286 29.6416 25.8212 28.8709 31.0713C30.1797 29.4652 31.1235 28.7591 32.8109 28.0059C31.2073 29.2991 30.6367 30.0329 29.3306 31.4035C32.0105 31.3343 35.2284 29.7338 36.0153 25.0237Z" fill="#2A332F"/>
<path d="M15.5965 32.9901C17.9139 33.6962 22.008 35.4739 21.8674 41.4828L21.6727 41.5271C20.1205 39.5444 19.6527 38.722 18.5521 37.08C19.2444 39.0488 19.9177 40.3475 21.3077 42.1723C18.8739 41.4191 15.2855 39.262 15.5965 32.9901Z" fill="#2A332F"/>
<path d="M21.4897 47.8765C19.7618 48.3251 17.4632 48.6297 14.3453 49.7179C16.6466 48.1147 18.58 47.5193 21.4275 46.9517C19.3399 45.9216 13.9667 45.0632 10.0592 51.7587C12.9473 52.8331 17.3659 53.0159 20.8786 48.7903C21.1219 48.4857 21.4086 48.0814 21.4897 47.8765Z" fill="#2A332F"/>
<path d="M58 29.4126C55.0633 27.9228 50.5122 26.6574 46.5452 29.983C45.1012 31.2318 43.4219 32.788 42.3186 33.3834C43.9249 30.6254 46.3992 26.8512 42.4376 19.3582C39.3981 22.8223 38.0433 26.7986 40.9395 31.8604C42.0293 29.9276 42.251 27.3053 42.3186 24.4394C42.5863 27.9035 41.7507 32.0487 40.1742 34.3691C38.4949 36.3185 34.5982 40.8265 32.8595 45.221C32.6567 45.7693 34.1358 48.2642 34.6848 50.1776L34.8795 50.0751C35.0174 45.1961 38.1028 39.586 42.8026 34.6959C45.9205 31.7275 49.1817 30.7666 52.4294 30.6226C49.7442 31.5087 47.5079 32.0044 45.3067 33.8375C48.2894 35.3494 53.0541 35.0808 57.2104 30.0965C57.5782 29.659 57.8918 29.5483 58 29.4126Z" fill="#2A332F"/>
<path d="M35.8536 65.5153L35.6508 60.4203C35.6508 55.7046 34.68 53.0463 33.2846 49.4327C31.7216 45.4758 28.0656 37.4539 28.1143 31.2429C28.1603 25.2729 30.8861 20.6652 37.2976 17.0987C34.5799 18.918 32.4896 20.5434 31.2917 22.7586C34.9774 22.8721 39.661 21.1 42.0867 13.7454C37.687 13.5931 33.9039 14.4543 31.4972 17.9959C30.1613 19.8871 29.6665 21.3907 28.6605 22.8971C28.8336 19.2253 30.7076 14.4044 26.6784 9.89645C25.3534 8.42332 23.9391 7.24371 23.8498 7.1911C22.5951 10.2426 21.2133 15.5647 24.534 19.4745C25.4345 20.5683 26.8271 21.1332 26.8271 21.1332C26.9515 17.6664 25.713 14.5844 25.3074 12.3027C26.9758 15.0136 27.7709 18.0125 27.6438 21.2273C27.5356 23.8607 25.3804 27.2749 26.0564 35.9198C23.5794 31.6278 19.8612 28.2302 18.1143 23.5423C17.4031 21.651 17.3409 19.3195 17.706 16.3871C17.7871 18.9014 17.9953 21.219 19.0256 23.7998C21.2403 20.9421 21.9542 16.6917 17.3274 10.9598C15.0992 14.3352 14.2474 17.7273 16.1673 21.9362C17.1543 24.0795 17.5356 25.0514 18.2468 26.5577C15.6671 24.7025 13.8769 22.4236 9.09597 22.6562C7.6195 22.7309 5.61572 23.1435 5.06136 23.3512C7.46806 27.6404 10.7888 30.2987 17.9142 29.5649C16.6757 27.6072 12.8574 26.0344 10.3237 25.2646C13.209 25.5553 17.2463 27.2223 18.9797 28.9557C22.2652 32.3035 25.5643 39.9516 28.501 46.3037C29.8909 49.358 32.2868 51.1385 33.8444 55.3142C35.6183 60.1517 35.2289 66.7835 29.5286 73L29.6557 72.9972H42.3544V72.8311C38.8201 72.125 37.203 70.7737 35.8536 65.5153Z" fill="#2A332F"/>
<path d="M2.29201 40.7324C4.73927 38.8079 8.11946 37.6034 11.7079 38.6335C13.6873 39.2482 15.4612 40.5884 16.935 41.3693C21.9566 43.2965 33.8576 47.9596 33.8576 60.4922C33.8576 66.2491 30.7451 71.0478 27.9247 72.9944L20.7425 72.9834L20.7398 72.8034C26.4023 71.2832 29.6851 65.8752 29.6851 59.5951C29.6851 55.5689 27.4109 50.9363 24.723 48.7931C20.0908 44.9995 16.332 40.8847 8.24115 40.9512C10.6911 40.9512 13.9713 41.685 15.7398 43.2328C13.6954 44.4069 12.0053 44.6672 10.4559 44.5814C7.02428 44.2574 4.47697 42.272 2.29201 40.7324Z" fill="#2A332F"/>
<path d="M94.844 56.1904C93.384 56.1904 92.0986 55.9048 90.9877 55.3335C89.8927 54.7622 89.0436 53.9845 88.4406 53.0006C87.8375 52.0008 87.536 50.8661 87.536 49.5966C87.536 48.3111 87.8296 47.1764 88.4168 46.1925C89.0198 45.1927 89.8371 44.4151 90.8687 43.8596C91.9002 43.2883 93.0666 43.0027 94.3679 43.0027C95.6216 43.0027 96.7484 43.2725 97.7482 43.812C98.7639 44.3357 99.5653 45.0975 100.152 46.0973C100.74 47.0812 101.033 48.2635 101.033 49.6442C101.033 49.787 101.025 49.9536 101.009 50.1441C100.994 50.3186 100.978 50.4853 100.962 50.644H90.5592V48.4777H99.0098L97.5816 49.1205C97.5816 48.4539 97.4467 47.8747 97.1769 47.3827C96.9071 46.8908 96.5342 46.5099 96.0581 46.2401C95.582 45.9544 95.0265 45.8116 94.3917 45.8116C93.7569 45.8116 93.1936 45.9544 92.7016 46.2401C92.2255 46.5099 91.8526 46.8987 91.5828 47.4065C91.313 47.8985 91.1781 48.4857 91.1781 49.1681V49.7394C91.1781 50.4377 91.3289 51.0566 91.6304 51.5961C91.9478 52.1198 92.3842 52.5245 92.9397 52.8102C93.511 53.08 94.1775 53.2149 94.9393 53.2149C95.6217 53.2149 96.2168 53.1117 96.7246 52.9054C97.2483 52.6991 97.7244 52.3896 98.1529 51.977L100.129 54.1194C99.5415 54.786 98.8035 55.3017 97.9148 55.6667C97.0261 56.0159 96.0025 56.1904 94.844 56.1904Z" fill="#2A332F"/>
<path d="M78.4224 56V43.1931H81.9693V46.8114L81.4694 45.764C81.8502 44.8594 82.4612 44.177 83.3023 43.7168C84.1434 43.2407 85.167 43.0027 86.3731 43.0027V46.4305C86.2144 46.4147 86.0716 46.4067 85.9446 46.4067C85.8177 46.3909 85.6828 46.3829 85.54 46.3829C84.5243 46.3829 83.6991 46.6765 83.0643 47.2637C82.4453 47.835 82.1359 48.7317 82.1359 49.9536V56H78.4224Z" fill="#2A332F"/>
<path d="M68.9178 56.1904C67.553 56.1904 66.339 55.9048 65.2757 55.3335C64.2283 54.7622 63.3951 53.9845 62.7762 53.0006C62.1732 52.0008 61.8716 50.8661 61.8716 49.5966C61.8716 48.3111 62.1732 47.1764 62.7762 46.1925C63.3951 45.1927 64.2283 44.4151 65.2757 43.8596C66.339 43.2883 67.553 43.0027 68.9178 43.0027C70.2667 43.0027 71.4728 43.2883 72.5361 43.8596C73.5994 44.4151 74.4326 45.1848 75.0356 46.1687C75.6387 47.1526 75.9402 48.2952 75.9402 49.5966C75.9402 50.8661 75.6387 52.0008 75.0356 53.0006C74.4326 53.9845 73.5994 54.7622 72.5361 55.3335C71.4728 55.9048 70.2667 56.1904 68.9178 56.1904ZM68.9178 53.1434C69.5367 53.1434 70.0922 53.0006 70.5841 52.715C71.0761 52.4293 71.4649 52.0246 71.7506 51.5009C72.0362 50.9614 72.179 50.3266 72.179 49.5966C72.179 48.8507 72.0362 48.2159 71.7506 47.6922C71.4649 47.1685 71.0761 46.7638 70.5841 46.4781C70.0922 46.1925 69.5367 46.0497 68.9178 46.0497C68.2989 46.0497 67.7435 46.1925 67.2515 46.4781C66.7595 46.7638 66.3628 47.1685 66.0613 47.6922C65.7756 48.2159 65.6328 48.8507 65.6328 49.5966C65.6328 50.3266 65.7756 50.9614 66.0613 51.5009C66.3628 52.0246 66.7595 52.4293 67.2515 52.715C67.7435 53.0006 68.2989 53.1434 68.9178 53.1434Z" fill="#2A332F"/>
<path d="M55.1115 56.1904C53.7308 56.1904 52.5009 55.9127 51.4218 55.3573C50.3426 54.786 49.4936 54.0004 48.8747 53.0006C48.2716 52.0008 47.9701 50.8661 47.9701 49.5966C47.9701 48.3111 48.2716 47.1764 48.8747 46.1925C49.4936 45.1927 50.3426 44.4151 51.4218 43.8596C52.5009 43.2883 53.7308 43.0027 55.1115 43.0027C56.4604 43.0027 57.6348 43.2883 58.6346 43.8596C59.6344 44.4151 60.3723 45.2165 60.8484 46.2639L57.9681 47.8112C57.6348 47.2082 57.2142 46.7638 56.7064 46.4781C56.2145 46.1925 55.6749 46.0497 55.0877 46.0497C54.4529 46.0497 53.8816 46.1925 53.3738 46.4781C52.8659 46.7638 52.4613 47.1685 52.1597 47.6922C51.8741 48.2159 51.7312 48.8507 51.7312 49.5966C51.7312 50.3424 51.8741 50.9772 52.1597 51.5009C52.4613 52.0246 52.8659 52.4293 53.3738 52.715C53.8816 53.0006 54.4529 53.1434 55.0877 53.1434C55.6749 53.1434 56.2145 53.0086 56.7064 52.7388C57.2142 52.4531 57.6348 52.0008 57.9681 51.3819L60.8484 52.953C60.3723 53.9845 59.6344 54.786 58.6346 55.3573C57.6348 55.9127 56.4604 56.1904 55.1115 56.1904Z" fill="#2A332F"/>
<path d="M155.267 56V43.5026H156.885V46.9066L156.719 46.3115C157.068 45.3593 157.655 44.6373 158.48 44.1453C159.305 43.6375 160.329 43.3835 161.551 43.3835V45.0261C161.488 45.0261 161.424 45.0261 161.361 45.0261C161.297 45.0102 161.234 45.0023 161.17 45.0023C159.853 45.0023 158.821 45.4069 158.076 46.2163C157.33 47.0098 156.957 48.1445 156.957 49.6204V56H155.267Z" fill="#2A332F"/>
<path d="M146.209 56.119C144.907 56.119 143.765 55.8492 142.781 55.3097C141.797 54.7542 141.027 54.0004 140.472 53.0482C139.916 52.0802 139.639 50.9772 139.639 49.7394C139.639 48.5015 139.901 47.4065 140.424 46.4543C140.964 45.5022 141.694 44.7563 142.614 44.2167C143.551 43.6613 144.598 43.3835 145.756 43.3835C146.931 43.3835 147.97 43.6533 148.875 44.1929C149.795 44.7166 150.517 45.4625 151.041 46.4305C151.565 47.3827 151.827 48.4857 151.827 49.7394C151.827 49.8187 151.819 49.906 151.803 50.0012C151.803 50.0806 151.803 50.1679 151.803 50.2631H140.924V49.0014H150.898L150.232 49.5013C150.232 48.5968 150.033 47.7953 149.637 47.0971C149.256 46.3829 148.732 45.8275 148.066 45.4307C147.399 45.034 146.629 44.8356 145.756 44.8356C144.9 44.8356 144.13 45.034 143.447 45.4307C142.765 45.8275 142.233 46.3829 141.853 47.0971C141.472 47.8112 141.281 48.6285 141.281 49.5489V49.8108C141.281 50.763 141.488 51.6041 141.9 52.3341C142.329 53.0482 142.916 53.6116 143.662 54.0242C144.423 54.421 145.288 54.6193 146.256 54.6193C147.018 54.6193 147.724 54.4844 148.375 54.2147C149.041 53.9449 149.613 53.5323 150.089 52.9768L151.041 54.0718C150.486 54.7384 149.787 55.2462 148.946 55.5953C148.121 55.9445 147.209 56.119 146.209 56.119Z" fill="#2A332F"/>
<path d="M125 55.6165V43.119H126.619V46.5469L126.357 45.9042C126.754 44.9996 127.388 44.2934 128.261 43.7856C129.134 43.2619 130.174 43 131.38 43C132.395 43 133.284 43.1984 134.046 43.5951C134.823 43.976 135.426 44.5632 135.855 45.3567C136.299 46.1501 136.521 47.1499 136.521 48.356V55.6165H134.831V48.5227C134.831 47.2055 134.498 46.2136 133.832 45.5471C133.181 44.8647 132.26 44.5235 131.07 44.5235C130.181 44.5235 129.404 44.706 128.737 45.071C128.087 45.4201 127.579 45.9359 127.214 46.6183C126.865 47.2848 126.69 48.0942 126.69 49.0464V55.6165H125Z" fill="#2A332F"/>
<path d="M110.727 56V43.5026H112.346V46.9304L112.084 46.2877C112.48 45.3831 113.115 44.6769 113.988 44.1691C114.861 43.6454 115.9 43.3835 117.106 43.3835C118.122 43.3835 119.011 43.5819 119.773 43.9787C120.55 44.3595 121.153 44.9467 121.582 45.7402C122.026 46.5337 122.248 47.5335 122.248 48.7396V56H120.558V48.9062C120.558 47.589 120.225 46.5972 119.558 45.9306C118.908 45.2482 117.987 44.907 116.797 44.907C115.908 44.907 115.131 45.0895 114.464 45.4545C113.813 45.8037 113.306 46.3195 112.941 47.0019C112.591 47.6684 112.417 48.4777 112.417 49.4299V56H110.727Z" fill="#2A332F"/>
<path d="M104.334 56V43.5026H106.024V56H104.334ZM105.191 40.7412C104.842 40.7412 104.548 40.6222 104.31 40.3842C104.072 40.1461 103.953 39.8605 103.953 39.5272C103.953 39.1939 104.072 38.9162 104.31 38.694C104.548 38.456 104.842 38.337 105.191 38.337C105.54 38.337 105.834 38.4481 106.072 38.6702C106.31 38.8924 106.429 39.1701 106.429 39.5034C106.429 39.8525 106.31 40.1461 106.072 40.3842C105.85 40.6222 105.556 40.7412 105.191 40.7412Z" fill="#2A332F"/>
<path d="M158.804 70.3591C158.193 70.3591 157.629 70.26 157.11 70.0616C156.599 69.8557 156.153 69.5696 155.771 69.2035C155.398 68.8373 155.104 68.4064 154.89 67.9105C154.684 67.4147 154.581 66.8731 154.581 66.2858C154.581 65.6984 154.684 65.1568 154.89 64.661C155.104 64.1652 155.401 63.7342 155.783 63.3681C156.164 63.0019 156.611 62.7197 157.122 62.5213C157.64 62.3154 158.205 62.2124 158.815 62.2124C159.425 62.2124 159.982 62.3078 160.486 62.4985C160.997 62.6892 161.431 62.979 161.79 63.3681L161.264 63.9058C160.928 63.5702 160.558 63.3299 160.154 63.185C159.749 63.0401 159.315 62.9676 158.849 62.9676C158.353 62.9676 157.896 63.0515 157.476 63.2193C157.064 63.3795 156.702 63.6122 156.389 63.9173C156.084 64.2148 155.844 64.5657 155.668 64.9699C155.501 65.3666 155.417 65.8052 155.417 66.2858C155.417 66.7587 155.501 67.1973 155.668 67.6016C155.844 68.0059 156.084 68.3606 156.389 68.6657C156.702 68.9632 157.064 69.1959 157.476 69.3637C157.896 69.5239 158.35 69.604 158.838 69.604C159.296 69.604 159.727 69.5353 160.131 69.398C160.543 69.2607 160.92 69.028 161.264 68.7L161.744 69.3408C161.363 69.6764 160.917 69.932 160.405 70.1074C159.894 70.2752 159.36 70.3591 158.804 70.3591ZM161.744 69.3408L160.932 69.2378V66.2858H161.744V69.3408Z" fill="#2A332F"/>
<path d="M139.003 70.2905V62.2811H139.701L145.228 69.2378H144.862V62.2811H145.697V70.2905H144.999L139.484 63.3337H139.85V70.2905H139.003Z" fill="#2A332F"/>
<path d="M128.571 70.2905V62.2811H129.418V70.2905H128.571Z" fill="#2A332F"/>
<path d="M118.142 70.2905V62.2811H118.977V70.2905H118.142ZM112.284 70.2905V62.2811H113.13V70.2905H112.284ZM113.039 66.5947V65.851H118.222V66.5947H113.039Z" fill="#2A332F"/>
<path d="M100.67 70.3591C100.068 70.3591 99.5108 70.26 98.9997 70.0616C98.4886 69.8557 98.0462 69.5696 97.6724 69.2035C97.2986 68.8373 97.005 68.4064 96.7914 67.9105C96.5854 67.4147 96.4824 66.8731 96.4824 66.2858C96.4824 65.6984 96.5854 65.1568 96.7914 64.661C97.005 64.1652 97.2986 63.7342 97.6724 63.3681C98.0538 63.0019 98.5 62.7197 99.0111 62.5213C99.5222 62.3154 100.079 62.2124 100.682 62.2124C101.261 62.2124 101.807 62.3116 102.318 62.5099C102.829 62.7006 103.26 62.9905 103.611 63.3795L103.073 63.9173C102.745 63.5816 102.383 63.3414 101.986 63.1964C101.589 63.0439 101.162 62.9676 100.705 62.9676C100.224 62.9676 99.7777 63.0515 99.3658 63.2193C98.9539 63.3795 98.5954 63.6122 98.2903 63.9173C97.9851 64.2148 97.7449 64.5657 97.5694 64.9699C97.4016 65.3666 97.3177 65.8052 97.3177 66.2858C97.3177 66.7663 97.4016 67.2088 97.5694 67.613C97.7449 68.0097 97.9851 68.3606 98.2903 68.6657C98.5954 68.9632 98.9539 69.1959 99.3658 69.3637C99.7777 69.5239 100.224 69.604 100.705 69.604C101.162 69.604 101.589 69.5277 101.986 69.3751C102.383 69.2225 102.745 68.9785 103.073 68.6428L103.611 69.1806C103.26 69.5696 102.829 69.8633 102.318 70.0616C101.807 70.26 101.258 70.3591 100.67 70.3591Z" fill="#2A332F"/>
<path d="M80.8409 70.2905L84.5023 62.2811H85.3376L88.999 70.2905H88.1065L84.7426 62.7731H85.0858L81.7219 70.2905H80.8409ZM82.2825 68.1508L82.5343 67.4643H87.1912L87.4429 68.1508H82.2825Z" fill="#2A332F"/>
<path d="M69.1574 70.3591C68.5548 70.3591 67.9941 70.26 67.4754 70.0616C66.9644 69.8557 66.5181 69.5696 66.1367 69.2035C65.7629 68.8297 65.4693 68.3987 65.2557 67.9105C65.0497 67.4147 64.9468 66.8731 64.9468 66.2858C64.9468 65.6984 65.0497 65.1606 65.2557 64.6724C65.4693 64.1766 65.7629 63.7456 66.1367 63.3795C66.5181 63.0057 66.9644 62.7197 67.4754 62.5213C67.9865 62.3154 68.5472 62.2124 69.1574 62.2124C69.76 62.2124 70.3169 62.3154 70.8279 62.5213C71.339 62.7197 71.7814 63.0019 72.1552 63.3681C72.5366 63.7342 72.8303 64.1652 73.0362 64.661C73.2498 65.1568 73.3566 65.6984 73.3566 66.2858C73.3566 66.8731 73.2498 67.4147 73.0362 67.9105C72.8303 68.4064 72.5366 68.8373 72.1552 69.2035C71.7814 69.5696 71.339 69.8557 70.8279 70.0616C70.3169 70.26 69.76 70.3591 69.1574 70.3591ZM69.1574 69.604C69.638 69.604 70.0804 69.5239 70.4847 69.3637C70.8966 69.1959 71.2513 68.9632 71.5488 68.6657C71.8539 68.3606 72.0904 68.0097 72.2582 67.613C72.426 67.2088 72.5099 66.7663 72.5099 66.2858C72.5099 65.8052 72.426 65.3666 72.2582 64.9699C72.0904 64.5657 71.8539 64.2148 71.5488 63.9173C71.2513 63.6122 70.8966 63.3795 70.4847 63.2193C70.0804 63.0515 69.638 62.9676 69.1574 62.9676C68.6768 62.9676 68.2306 63.0515 67.8187 63.2193C67.4068 63.3795 67.0483 63.6122 66.7431 63.9173C66.4457 64.2148 66.2092 64.5657 66.0337 64.9699C65.8659 65.3666 65.782 65.8052 65.782 66.2858C65.782 66.7587 65.8659 67.1973 66.0337 67.6016C66.2092 68.0059 66.4457 68.3606 66.7431 68.6657C67.0483 68.9632 67.4068 69.1959 67.8187 69.3637C68.2306 69.5239 68.6768 69.604 69.1574 69.604Z" fill="#2A332F"/>
<path d="M54.445 70.3591C53.8423 70.3591 53.2855 70.26 52.7744 70.0616C52.2634 69.8557 51.8209 69.5696 51.4472 69.2035C51.0734 68.8373 50.7797 68.4064 50.5661 67.9105C50.3602 67.4147 50.2572 66.8731 50.2572 66.2858C50.2572 65.6984 50.3602 65.1568 50.5661 64.661C50.7797 64.1652 51.0734 63.7342 51.4472 63.3681C51.8286 63.0019 52.2748 62.7197 52.7859 62.5213C53.2969 62.3154 53.8538 62.2124 54.4564 62.2124C55.0361 62.2124 55.5815 62.3116 56.0926 62.5099C56.6037 62.7006 57.0347 62.9905 57.3856 63.3795L56.8478 63.9173C56.5198 63.5816 56.1574 63.3414 55.7608 63.1964C55.3641 63.0439 54.937 62.9676 54.4793 62.9676C53.9987 62.9676 53.5525 63.0515 53.1406 63.2193C52.7287 63.3795 52.3701 63.6122 52.065 63.9173C51.7599 64.2148 51.5196 64.5657 51.3442 64.9699C51.1764 65.3666 51.0925 65.8052 51.0925 66.2858C51.0925 66.7663 51.1764 67.2088 51.3442 67.613C51.5196 68.0097 51.7599 68.3606 52.065 68.6657C52.3701 68.9632 52.7287 69.1959 53.1406 69.3637C53.5525 69.5239 53.9987 69.604 54.4793 69.604C54.937 69.604 55.3641 69.5277 55.7608 69.3751C56.1574 69.2225 56.5198 68.9785 56.8478 68.6428L57.3856 69.1806C57.0347 69.5696 56.6037 69.8633 56.0926 70.0616C55.5815 70.26 55.0323 70.3591 54.445 70.3591Z" fill="#2A332F"/>
</svg>
