<svg width="185" height="80" viewBox="0 0 185 80" fill="none" xmlns="http://www.w3.org/2000/svg">
<path d="M34.0426 7C32.1227 7.99962 28.8939 10.1401 29.9675 15.0773C30.7436 13.4906 31.2628 11.8181 32.2579 10.3644C31.5656 12.0258 31.1276 13.2719 30.849 15.08C32.4526 14.3573 35.1027 12.2252 34.0426 7Z" fill="#2A332F"/>
<path d="M53.7286 17.4476C50.416 17.8962 45.6837 19.397 45.5107 25.835C47.3765 23.0327 48.6854 21.7285 50.1862 20.6763C48.2932 22.7863 47.5821 23.9548 46.376 26.1867C49.0315 25.8378 52.8741 23.7693 53.7286 17.4476Z" fill="#2A332F"/>
<path d="M6.66055 13.8534C8.89689 14.2355 12.2771 15.7806 12.442 20.8618C11.2035 18.9096 10.2625 17.9654 9.02399 16.8661C10.6032 18.7629 11.3739 19.9979 11.9418 21.1609C9.85416 20.8895 6.37391 18.4361 6.66055 13.8534Z" fill="#2A332F"/>
<path d="M1 30.1713C3.08761 29.7504 8.57164 29.4458 11.2596 35.834L11.1514 35.9669C9.16926 33.9954 7.92534 33.3585 5.45104 32.3395C7.66034 33.5218 9.08813 34.5519 10.6376 36.5096C7.88749 36.9111 3.97998 35.8838 1 30.1713Z" fill="#2A332F"/>
<path d="M34.5562 31.8134C32.4686 33.0982 30.0673 35.5765 31.4626 40.1039C32.0332 38.3068 32.4469 36.9444 33.2528 35.5931C32.8147 37.3764 32.5118 38.5394 31.9412 40.2368C33.6827 39.1264 36.4112 36.7118 34.5562 31.8134Z" fill="#2A332F"/>
<path d="M35.0153 25.0237C32.733 25.2286 28.6416 25.8212 27.8709 31.0713C29.1797 29.4652 30.1235 28.7591 31.8109 28.0059C30.2073 29.2991 29.6367 30.0329 28.3306 31.4035C31.0105 31.3343 34.2284 29.7338 35.0153 25.0237Z" fill="#2A332F"/>
<path d="M14.5965 32.9901C16.9139 33.6962 21.008 35.4739 20.8674 41.4828L20.6727 41.5271C19.1205 39.5444 18.6527 38.722 17.5521 37.08C18.2444 39.0488 18.9177 40.3475 20.3077 42.1723C17.8739 41.4191 14.2855 39.262 14.5965 32.9901Z" fill="#2A332F"/>
<path d="M20.4897 47.8765C18.7618 48.3251 16.4632 48.6297 13.3453 49.7179C15.6466 48.1147 17.58 47.5193 20.4275 46.9517C18.3399 45.9216 12.9667 45.0632 9.05924 51.7587C11.9473 52.8331 16.3659 53.0159 19.8786 48.7903C20.1219 48.4857 20.4086 48.0814 20.4897 47.8765Z" fill="#2A332F"/>
<path d="M57 29.4126C54.0633 27.9228 49.5122 26.6574 45.5452 29.983C44.1012 31.2318 42.4219 32.788 41.3186 33.3834C42.9249 30.6254 45.3992 26.8512 41.4376 19.3582C38.3981 22.8223 37.0433 26.7986 39.9395 31.8604C41.0293 29.9276 41.251 27.3053 41.3186 24.4394C41.5863 27.9035 40.7507 32.0487 39.1742 34.3691C37.4949 36.3185 33.5982 40.8265 31.8595 45.221C31.6567 45.7693 33.1358 48.2642 33.6848 50.1776L33.8795 50.0751C34.0174 45.1961 37.1028 39.586 41.8026 34.6959C44.9205 31.7275 48.1817 30.7666 51.4294 30.6226C48.7442 31.5087 46.5079 32.0044 44.3067 33.8375C47.2894 35.3494 52.0541 35.0808 56.2104 30.0965C56.5782 29.659 56.8918 29.5483 57 29.4126Z" fill="#2A332F"/>
<path d="M34.8536 65.5153L34.6508 60.4203C34.6508 55.7046 33.68 53.0463 32.2846 49.4327C30.7216 45.4758 27.0656 37.4539 27.1143 31.2429C27.1603 25.2729 29.8861 20.6652 36.2976 17.0987C33.5799 18.918 31.4896 20.5434 30.2917 22.7586C33.9774 22.8721 38.661 21.1 41.0867 13.7454C36.687 13.5931 32.9039 14.4543 30.4972 17.9959C29.1613 19.8871 28.6665 21.3907 27.6605 22.8971C27.8336 19.2253 29.7076 14.4044 25.6784 9.89645C24.3534 8.42332 22.9391 7.24371 22.8498 7.1911C21.5951 10.2426 20.2133 15.5647 23.534 19.4745C24.4345 20.5683 25.8271 21.1332 25.8271 21.1332C25.9515 17.6664 24.713 14.5844 24.3074 12.3027C25.9758 15.0136 26.7709 18.0125 26.6438 21.2273C26.5356 23.8607 24.3804 27.2749 25.0564 35.9198C22.5794 31.6278 18.8612 28.2302 17.1143 23.5423C16.4031 21.651 16.3409 19.3195 16.706 16.3871C16.7871 18.9014 16.9953 21.219 18.0256 23.7998C20.2403 20.9421 20.9542 16.6917 16.3274 10.9598C14.0992 14.3352 13.2474 17.7273 15.1673 21.9362C16.1543 24.0795 16.5356 25.0514 17.2468 26.5577C14.6671 24.7025 12.8769 22.4236 8.09597 22.6562C6.6195 22.7309 4.61572 23.1435 4.06136 23.3512C6.46806 27.6404 9.78877 30.2987 16.9142 29.5649C15.6757 27.6072 11.8574 26.0344 9.32365 25.2646C12.209 25.5553 16.2463 27.2223 17.9797 28.9557C21.2652 32.3035 24.5643 39.9516 27.501 46.3037C28.8909 49.358 31.2868 51.1385 32.8444 55.3142C34.6183 60.1517 34.2289 66.7835 28.5286 73L28.6557 72.9972H41.3544V72.8311C37.8201 72.125 36.203 70.7737 34.8536 65.5153Z" fill="#2A332F"/>
<path d="M1.29201 40.7324C3.73927 38.8079 7.11946 37.6034 10.7079 38.6335C12.6873 39.2482 14.4612 40.5884 15.935 41.3693C20.9566 43.2965 32.8576 47.9596 32.8576 60.4922C32.8576 66.2491 29.7451 71.0478 26.9247 72.9944L19.7425 72.9834L19.7398 72.8034C25.4023 71.2832 28.6851 65.8752 28.6851 59.5951C28.6851 55.5689 26.4109 50.9363 23.723 48.7931C19.0908 44.9995 15.332 40.8847 7.24115 40.9512C9.69112 40.9512 12.9713 41.685 14.7398 43.2328C12.6954 44.4069 11.0053 44.6672 9.45585 44.5814C6.02428 44.2574 3.47697 42.272 1.29201 40.7324Z" fill="#2A332F"/>
<path d="M176.108 55V45.231H178.814V47.991L178.433 47.1921C178.723 46.5021 179.189 45.9816 179.831 45.6305C180.472 45.2673 181.253 45.0858 182.173 45.0858V47.7005C182.052 47.6884 181.943 47.6823 181.846 47.6823C181.749 47.6702 181.647 47.6642 181.538 47.6642C180.763 47.6642 180.133 47.8881 179.649 48.336C179.177 48.7718 178.941 49.4558 178.941 50.3879V55H176.108Z" fill="#2A332F"/>
<path d="M169.501 55.1453C168.388 55.1453 167.407 54.9274 166.56 54.4916C165.725 54.0558 165.077 53.4626 164.617 52.7121C164.157 51.9495 163.927 51.0839 163.927 50.1155C163.927 49.135 164.151 48.2695 164.599 47.5189C165.059 46.7563 165.682 46.1631 166.469 45.7394C167.256 45.3037 168.146 45.0858 169.138 45.0858C170.095 45.0858 170.954 45.2915 171.717 45.7031C172.491 46.1026 173.103 46.6837 173.551 47.4463C173.999 48.1968 174.222 49.0987 174.222 50.1518C174.222 50.2608 174.216 50.3879 174.204 50.5331C174.192 50.6663 174.18 50.7934 174.168 50.9145H166.233V49.2621H172.679L171.59 49.7523C171.59 49.2439 171.487 48.8021 171.281 48.4268C171.075 48.0516 170.791 47.761 170.427 47.5552C170.064 47.3373 169.641 47.2284 169.156 47.2284C168.672 47.2284 168.242 47.3373 167.867 47.5552C167.504 47.761 167.22 48.0576 167.014 48.445C166.808 48.8202 166.705 49.2681 166.705 49.7887V50.2245C166.705 50.7571 166.82 51.2292 167.05 51.6408C167.292 52.0403 167.625 52.3489 168.049 52.5668C168.485 52.7726 168.993 52.8755 169.574 52.8755C170.095 52.8755 170.549 52.7968 170.936 52.6395C171.335 52.4821 171.699 52.246 172.025 51.9313L173.532 53.5655C173.085 54.0739 172.522 54.4674 171.844 54.7458C171.166 55.0121 170.385 55.1453 169.501 55.1453Z" fill="#2A332F"/>
<path d="M155.302 58.6679C154.793 58.6679 154.291 58.5892 153.795 58.4319C153.298 58.2745 152.893 58.0566 152.578 57.7782L153.613 55.7626C153.831 55.9563 154.079 56.1076 154.358 56.2166C154.648 56.3255 154.933 56.38 155.211 56.38C155.61 56.38 155.925 56.2832 156.155 56.0895C156.397 55.9079 156.615 55.5992 156.809 55.1634L157.317 53.965L157.535 53.6563L161.04 45.231H163.763L159.351 55.5992C159.036 56.3861 158.673 57.0034 158.261 57.4513C157.862 57.8992 157.414 58.214 156.918 58.3955C156.434 58.5771 155.895 58.6679 155.302 58.6679ZM156.972 55.3813L152.614 45.231H155.538L158.915 53.4021L156.972 55.3813Z" fill="#2A332F"/>
<path d="M149.03 55V53.0934L148.848 52.6758V49.2621C148.848 48.6568 148.66 48.1847 148.285 47.8458C147.922 47.5068 147.359 47.3373 146.596 47.3373C146.076 47.3373 145.561 47.4221 145.053 47.5916C144.557 47.7489 144.133 47.9668 143.782 48.2452L142.765 46.266C143.298 45.8908 143.939 45.6002 144.69 45.3944C145.44 45.1887 146.203 45.0858 146.978 45.0858C148.467 45.0858 149.623 45.4368 150.446 46.1389C151.269 46.841 151.681 47.9366 151.681 49.4255V55H149.03ZM146.052 55.1453C145.289 55.1453 144.635 55.0182 144.091 54.7639C143.546 54.4976 143.128 54.1405 142.838 53.6926C142.547 53.2447 142.402 52.7424 142.402 52.1855C142.402 51.6045 142.541 51.096 142.82 50.6602C143.11 50.2245 143.564 49.8855 144.181 49.6434C144.799 49.3892 145.604 49.2621 146.596 49.2621H149.193V50.9145H146.905C146.239 50.9145 145.779 51.0234 145.525 51.2413C145.283 51.4592 145.162 51.7316 145.162 52.0584C145.162 52.4216 145.301 52.7121 145.58 52.93C145.87 53.1358 146.264 53.2387 146.76 53.2387C147.232 53.2387 147.656 53.1297 148.031 52.9118C148.406 52.6818 148.679 52.3489 148.848 51.9131L149.284 53.2205C149.078 53.85 148.703 54.3282 148.158 54.655C147.613 54.9818 146.911 55.1453 146.052 55.1453Z" fill="#2A332F"/>
<path d="M125.895 55V42.2894H128.328L133.739 51.2595H132.45L137.77 42.2894H140.185L140.222 55H137.462L137.443 46.5202H137.952L133.703 53.6563H132.377L128.038 46.5202H128.655V55H125.895Z" fill="#2A332F"/>
<path d="M115.338 55V53.0934L115.157 52.6758V49.2621C115.157 48.6568 114.969 48.1847 114.594 47.8458C114.23 47.5068 113.668 47.3373 112.905 47.3373C112.384 47.3373 111.87 47.4221 111.361 47.5916C110.865 47.7489 110.441 47.9668 110.09 48.2452L109.074 46.266C109.606 45.8908 110.248 45.6002 110.998 45.3944C111.749 45.1887 112.511 45.0858 113.286 45.0858C114.775 45.0858 115.931 45.4368 116.754 46.1389C117.578 46.841 117.989 47.9366 117.989 49.4255V55H115.338ZM112.36 55.1453C111.598 55.1453 110.944 55.0182 110.399 54.7639C109.854 54.4976 109.437 54.1405 109.146 53.6926C108.856 53.2447 108.71 52.7424 108.71 52.1855C108.71 51.6045 108.85 51.096 109.128 50.6602C109.419 50.2245 109.873 49.8855 110.49 49.6434C111.107 49.3892 111.912 49.2621 112.905 49.2621H115.502V50.9145H113.214C112.548 50.9145 112.088 51.0234 111.834 51.2413C111.591 51.4592 111.47 51.7316 111.47 52.0584C111.47 52.4216 111.61 52.7121 111.888 52.93C112.179 53.1358 112.572 53.2387 113.068 53.2387C113.54 53.2387 113.964 53.1297 114.339 52.9118C114.715 52.6818 114.987 52.3489 115.157 51.9131L115.592 53.2205C115.387 53.85 115.011 54.3282 114.466 54.655C113.922 54.9818 113.22 55.1453 112.36 55.1453Z" fill="#2A332F"/>
<path d="M96.7914 55V45.231H99.497V47.9366L98.9885 47.1194C99.3396 46.4658 99.842 45.9634 100.496 45.6123C101.149 45.2613 101.894 45.0858 102.729 45.0858C103.504 45.0858 104.194 45.2431 104.799 45.5579C105.416 45.8605 105.901 46.3326 106.252 46.9742C106.603 47.6037 106.778 48.4147 106.778 49.4073V55H103.946V49.8431C103.946 49.0563 103.77 48.4752 103.419 48.1C103.08 47.7247 102.596 47.5371 101.966 47.5371C101.519 47.5371 101.113 47.6339 100.75 47.8276C100.399 48.0092 100.12 48.2937 99.9146 48.681C99.7209 49.0684 99.6241 49.5647 99.6241 50.17V55H96.7914Z" fill="#2A332F"/>
<path d="M84.2369 55V45.231H86.9425V47.9366L86.434 47.1194C86.7851 46.4658 87.2874 45.9634 87.9411 45.6123C88.5948 45.2613 89.3393 45.0858 90.1746 45.0858C90.9493 45.0858 91.6393 45.2431 92.2446 45.5579C92.8619 45.8605 93.3462 46.3326 93.6972 46.9742C94.0483 47.6037 94.2238 48.4147 94.2238 49.4073V55H91.3911V49.8431C91.3911 49.0563 91.2156 48.4752 90.8646 48.1C90.5256 47.7247 90.0414 47.5371 89.4119 47.5371C88.964 47.5371 88.5585 47.6339 88.1953 47.8276C87.8443 48.0092 87.5659 48.2937 87.3601 48.681C87.1664 49.0684 87.0696 49.5647 87.0696 50.17V55H84.2369Z" fill="#2A332F"/>
<path d="M78.7753 55V45.231H81.608V55H78.7753ZM80.1917 43.8692C79.6711 43.8692 79.2475 43.7179 78.9206 43.4152C78.5938 43.1126 78.4303 42.7373 78.4303 42.2894C78.4303 41.8415 78.5938 41.4663 78.9206 41.1636C79.2475 40.861 79.6711 40.7097 80.1917 40.7097C80.7122 40.7097 81.1359 40.855 81.4627 41.1455C81.7896 41.4239 81.953 41.7871 81.953 42.235C81.953 42.7071 81.7896 43.1005 81.4627 43.4152C81.148 43.7179 80.7243 43.8692 80.1917 43.8692Z" fill="#2A332F"/>
<path d="M71.0086 55V45.231H73.7141V47.991L73.3328 47.1921C73.6233 46.5021 74.0894 45.9816 74.7309 45.6305C75.3725 45.2673 76.1533 45.0858 77.0733 45.0858V47.7005C76.9523 47.6884 76.8433 47.6823 76.7465 47.6823C76.6496 47.6702 76.5467 47.6642 76.4378 47.6642C75.6631 47.6642 75.0336 47.8881 74.5494 48.336C74.0773 48.7718 73.8412 49.4558 73.8412 50.3879V55H71.0086Z" fill="#2A332F"/>
<path d="M63.7586 55.1453C62.7175 55.1453 61.7915 54.9274 60.9804 54.4916C60.1815 54.0558 59.5459 53.4626 59.0738 52.7121C58.6138 51.9495 58.3838 51.0839 58.3838 50.1155C58.3838 49.135 58.6138 48.2695 59.0738 47.5189C59.5459 46.7563 60.1815 46.1631 60.9804 45.7394C61.7915 45.3037 62.7175 45.0858 63.7586 45.0858C64.7875 45.0858 65.7075 45.3037 66.5186 45.7394C67.3296 46.1631 67.9652 46.7502 68.4252 47.5008C68.8852 48.2513 69.1152 49.1229 69.1152 50.1155C69.1152 51.0839 68.8852 51.9495 68.4252 52.7121C67.9652 53.4626 67.3296 54.0558 66.5186 54.4916C65.7075 54.9274 64.7875 55.1453 63.7586 55.1453ZM63.7586 52.821C64.2307 52.821 64.6544 52.7121 65.0296 52.4942C65.4049 52.2763 65.7015 51.9676 65.9194 51.5681C66.1373 51.1566 66.2462 50.6724 66.2462 50.1155C66.2462 49.5466 66.1373 49.0623 65.9194 48.6629C65.7015 48.2634 65.4049 47.9547 65.0296 47.7368C64.6544 47.5189 64.2307 47.41 63.7586 47.41C63.2865 47.41 62.8628 47.5189 62.4875 47.7368C62.1123 47.9547 61.8096 48.2634 61.5796 48.6629C61.3617 49.0623 61.2528 49.5466 61.2528 50.1155C61.2528 50.6724 61.3617 51.1566 61.5796 51.5681C61.8096 51.9676 62.1123 52.2763 62.4875 52.4942C62.8628 52.7121 63.2865 52.821 63.7586 52.821Z" fill="#2A332F"/>
<path d="M52.59 55.2179C51.6095 55.2179 50.6955 55.0605 49.8482 54.7458C49.0129 54.4189 48.2866 53.9589 47.6692 53.3658C47.0518 52.7726 46.5676 52.0766 46.2166 51.2776C45.8776 50.4787 45.7082 49.601 45.7082 48.6447C45.7082 47.6884 45.8776 46.8108 46.2166 46.0118C46.5676 45.2129 47.0518 44.5168 47.6692 43.9237C48.2987 43.3305 49.0311 42.8765 49.8663 42.5618C50.7016 42.235 51.6155 42.0715 52.6082 42.0715C53.7098 42.0715 54.7024 42.2652 55.5861 42.6526C56.4819 43.0279 57.2324 43.5847 57.8377 44.3231L55.9492 46.0663C55.5135 45.57 55.0292 45.2008 54.4966 44.9587C53.964 44.7044 53.3829 44.5773 52.7534 44.5773C52.1603 44.5773 51.6155 44.6742 51.1192 44.8679C50.6229 45.0616 50.1932 45.34 49.83 45.7031C49.4669 46.0663 49.1824 46.496 48.9766 46.9923C48.7829 47.4887 48.6861 48.0395 48.6861 48.6447C48.6861 49.25 48.7829 49.8008 48.9766 50.2971C49.1824 50.7934 49.4669 51.2231 49.83 51.5863C50.1932 51.9495 50.6229 52.2279 51.1192 52.4216C51.6155 52.6153 52.1603 52.7121 52.7534 52.7121C53.3829 52.7121 53.964 52.591 54.4966 52.3489C55.0292 52.0947 55.5135 51.7134 55.9492 51.205L57.8377 52.9482C57.2324 53.6866 56.4819 54.2495 55.5861 54.6368C54.7024 55.0242 53.7037 55.2179 52.59 55.2179Z" fill="#2A332F"/>
<path d="M180.503 71.189C179.975 71.189 179.469 71.112 178.985 70.958C178.501 70.804 178.109 70.584 177.808 70.298L178.204 69.704C178.476 69.946 178.809 70.1367 179.205 70.276C179.609 70.4227 180.034 70.496 180.481 70.496C181.215 70.496 181.754 70.3237 182.098 69.979C182.443 69.6417 182.615 69.1137 182.615 68.395V66.954L182.725 65.964L182.648 64.974V63.225H183.396V68.296C183.396 69.2933 183.151 70.023 182.659 70.485C182.175 70.9543 181.457 71.189 180.503 71.189ZM180.36 68.78C179.81 68.78 179.315 68.6627 178.875 68.428C178.435 68.186 178.087 67.8523 177.83 67.427C177.581 67.0017 177.456 66.514 177.456 65.964C177.456 65.414 177.581 64.93 177.83 64.512C178.087 64.0867 178.435 63.7567 178.875 63.522C179.315 63.2873 179.81 63.17 180.36 63.17C180.874 63.17 181.336 63.2763 181.746 63.489C182.157 63.7017 182.483 64.017 182.725 64.435C182.967 64.853 183.088 65.3627 183.088 65.964C183.088 66.5653 182.967 67.075 182.725 67.493C182.483 67.911 182.157 68.23 181.746 68.45C181.336 68.67 180.874 68.78 180.36 68.78ZM180.437 68.087C180.863 68.087 181.24 67.999 181.57 67.823C181.9 67.6397 182.161 67.3903 182.351 67.075C182.542 66.7523 182.637 66.382 182.637 65.964C182.637 65.546 182.542 65.1793 182.351 64.864C182.161 64.5487 181.9 64.303 181.57 64.127C181.24 63.9437 180.863 63.852 180.437 63.852C180.019 63.852 179.642 63.9437 179.304 64.127C178.974 64.303 178.714 64.5487 178.523 64.864C178.34 65.1793 178.248 65.546 178.248 65.964C178.248 66.382 178.34 66.7523 178.523 67.075C178.714 67.3903 178.974 67.6397 179.304 67.823C179.642 67.999 180.019 68.087 180.437 68.087Z" fill="#2A332F"/>
<path d="M169.506 69V63.225H170.254V64.809L170.133 64.512C170.316 64.094 170.609 63.7677 171.013 63.533C171.416 63.291 171.896 63.17 172.454 63.17C172.923 63.17 173.334 63.2617 173.686 63.445C174.045 63.621 174.324 63.8923 174.522 64.259C174.727 64.6257 174.83 65.0877 174.83 65.645V69H174.049V65.722C174.049 65.1133 173.895 64.655 173.587 64.347C173.286 64.0317 172.861 63.874 172.311 63.874C171.9 63.874 171.541 63.9583 171.233 64.127C170.932 64.2883 170.697 64.5267 170.529 64.842C170.367 65.15 170.287 65.524 170.287 65.964V69H169.506Z" fill="#2A332F"/>
<path d="M163.402 69.055C162.911 69.055 162.482 68.9633 162.115 68.78C161.749 68.5967 161.463 68.3217 161.257 67.955C161.059 67.5883 160.96 67.13 160.96 66.58V63.225H161.741V66.492C161.741 67.108 161.892 67.5737 162.192 67.889C162.5 68.197 162.929 68.351 163.479 68.351C163.883 68.351 164.231 68.2703 164.524 68.109C164.825 67.9403 165.052 67.6983 165.206 67.383C165.368 67.0677 165.448 66.69 165.448 66.25V63.225H166.229V69H165.481V67.416L165.602 67.702C165.419 68.1273 165.133 68.461 164.744 68.703C164.363 68.9377 163.916 69.055 163.402 69.055Z" fill="#2A332F"/>
<path d="M157.272 69.055C156.73 69.055 156.312 68.9083 156.018 68.615C155.725 68.3217 155.578 67.9073 155.578 67.372V61.949H156.359V67.328C156.359 67.6653 156.444 67.9257 156.612 68.109C156.788 68.2923 157.038 68.384 157.36 68.384C157.705 68.384 157.991 68.285 158.218 68.087L158.493 68.648C158.339 68.7873 158.152 68.89 157.932 68.956C157.72 69.022 157.5 69.055 157.272 69.055ZM154.544 63.874V63.225H158.119V63.874H154.544Z" fill="#2A332F"/>
<path d="M151.477 69V67.724L151.444 67.515V65.381C151.444 64.8897 151.305 64.512 151.026 64.248C150.755 63.984 150.348 63.852 149.805 63.852C149.431 63.852 149.075 63.9143 148.738 64.039C148.401 64.1637 148.115 64.3287 147.88 64.534L147.528 63.951C147.821 63.7017 148.173 63.511 148.584 63.379C148.995 63.2397 149.427 63.17 149.882 63.17C150.63 63.17 151.206 63.357 151.609 63.731C152.02 64.0977 152.225 64.6587 152.225 65.414V69H151.477ZM149.486 69.055C149.053 69.055 148.676 68.9853 148.353 68.846C148.038 68.6993 147.796 68.5013 147.627 68.252C147.458 67.9953 147.374 67.702 147.374 67.372C147.374 67.0713 147.444 66.8 147.583 66.558C147.73 66.3087 147.964 66.1107 148.287 65.964C148.617 65.81 149.057 65.733 149.607 65.733H151.598V66.316H149.629C149.072 66.316 148.683 66.415 148.463 66.613C148.25 66.811 148.144 67.0567 148.144 67.35C148.144 67.68 148.272 67.944 148.529 68.142C148.786 68.34 149.145 68.439 149.607 68.439C150.047 68.439 150.425 68.34 150.74 68.142C151.063 67.9367 151.297 67.6433 151.444 67.262L151.62 67.801C151.473 68.1823 151.217 68.4867 150.85 68.714C150.491 68.9413 150.036 69.055 149.486 69.055Z" fill="#2A332F"/>
<path d="M142.794 69V63.225H143.542V64.798L143.465 64.523C143.627 64.083 143.898 63.7493 144.279 63.522C144.661 63.2873 145.134 63.17 145.698 63.17V63.929C145.669 63.929 145.64 63.929 145.61 63.929C145.581 63.9217 145.552 63.918 145.522 63.918C144.914 63.918 144.437 64.105 144.092 64.479C143.748 64.8457 143.575 65.37 143.575 66.052V69H142.794Z" fill="#2A332F"/>
<path d="M137.509 69.055C136.907 69.055 136.379 68.9303 135.925 68.681C135.47 68.4243 135.114 68.076 134.858 67.636C134.601 67.1887 134.473 66.679 134.473 66.107C134.473 65.535 134.594 65.029 134.836 64.589C135.085 64.149 135.422 63.8043 135.848 63.555C136.28 63.2983 136.764 63.17 137.3 63.17C137.842 63.17 138.323 63.2947 138.741 63.544C139.166 63.786 139.5 64.1307 139.742 64.578C139.984 65.018 140.105 65.5277 140.105 66.107C140.105 66.1437 140.101 66.184 140.094 66.228C140.094 66.2647 140.094 66.305 140.094 66.349H135.067V65.766H139.676L139.368 65.997C139.368 65.579 139.276 65.2087 139.093 64.886C138.917 64.556 138.675 64.2993 138.367 64.116C138.059 63.9327 137.703 63.841 137.3 63.841C136.904 63.841 136.548 63.9327 136.233 64.116C135.917 64.2993 135.672 64.556 135.496 64.886C135.32 65.216 135.232 65.5937 135.232 66.019V66.14C135.232 66.58 135.327 66.9687 135.518 67.306C135.716 67.636 135.987 67.8963 136.332 68.087C136.684 68.2703 137.083 68.362 137.531 68.362C137.883 68.362 138.209 68.2997 138.51 68.175C138.818 68.0503 139.082 67.8597 139.302 67.603L139.742 68.109C139.485 68.417 139.162 68.6517 138.774 68.813C138.392 68.9743 137.971 69.055 137.509 69.055Z" fill="#2A332F"/>
<path d="M125.828 69V61.3H129.15C130.008 61.3 130.671 61.4723 131.141 61.817C131.617 62.1617 131.856 62.6493 131.856 63.28C131.856 63.698 131.757 64.05 131.559 64.336C131.368 64.622 131.104 64.8383 130.767 64.985C130.437 65.1317 130.074 65.205 129.678 65.205L129.865 64.941C130.356 64.941 130.778 65.018 131.13 65.172C131.489 65.3187 131.768 65.5423 131.966 65.843C132.164 66.1363 132.263 66.503 132.263 66.943C132.263 67.5957 132.021 68.1017 131.537 68.461C131.06 68.8203 130.338 69 129.37 69H125.828ZM126.642 68.329H129.359C130.033 68.329 130.55 68.2153 130.91 67.988C131.269 67.7533 131.449 67.383 131.449 66.877C131.449 66.3783 131.269 66.0153 130.91 65.788C130.55 65.5533 130.033 65.436 129.359 65.436H126.554V64.765H129.095C129.711 64.765 130.187 64.6477 130.525 64.413C130.869 64.1783 131.042 63.83 131.042 63.368C131.042 62.8987 130.869 62.5503 130.525 62.323C130.187 62.0883 129.711 61.971 129.095 61.971H126.642V68.329Z" fill="#2A332F"/>
<path d="M118.901 69.121L114.655 64.754C114.399 64.4827 114.193 64.248 114.039 64.05C113.893 63.8447 113.79 63.6503 113.731 63.467C113.673 63.2837 113.643 63.0893 113.643 62.884C113.643 62.554 113.72 62.268 113.874 62.026C114.036 61.7767 114.263 61.586 114.556 61.454C114.85 61.3147 115.194 61.245 115.59 61.245C115.95 61.245 116.261 61.3073 116.525 61.432C116.797 61.5493 117.006 61.7217 117.152 61.949C117.306 62.1763 117.383 62.4513 117.383 62.774C117.383 63.0527 117.314 63.313 117.174 63.555C117.042 63.797 116.822 64.0353 116.514 64.27C116.206 64.4973 115.788 64.754 115.26 65.04C114.798 65.2967 114.432 65.5313 114.16 65.744C113.896 65.9567 113.709 66.1657 113.599 66.371C113.489 66.569 113.434 66.789 113.434 67.031C113.434 67.3097 113.511 67.5553 113.665 67.768C113.827 67.9733 114.047 68.1347 114.325 68.252C114.611 68.362 114.938 68.417 115.304 68.417C115.818 68.417 116.276 68.3107 116.679 68.098C117.083 67.8853 117.42 67.5627 117.691 67.13C117.97 66.6973 118.172 66.1547 118.296 65.502L118.923 65.7C118.784 66.4333 118.546 67.0493 118.208 67.548C117.871 68.0467 117.453 68.4243 116.954 68.681C116.456 68.9377 115.891 69.066 115.26 69.066C114.762 69.066 114.318 68.9853 113.929 68.824C113.541 68.6553 113.233 68.4243 113.005 68.131C112.785 67.8377 112.675 67.4967 112.675 67.108C112.675 66.778 112.749 66.4773 112.895 66.206C113.042 65.9273 113.277 65.656 113.599 65.392C113.929 65.1207 114.366 64.8383 114.908 64.545C115.37 64.2883 115.73 64.0683 115.986 63.885C116.25 63.6943 116.437 63.5147 116.547 63.346C116.657 63.17 116.712 62.983 116.712 62.785C116.712 62.499 116.613 62.268 116.415 62.092C116.225 61.916 115.95 61.828 115.59 61.828C115.202 61.828 114.901 61.927 114.688 62.125C114.476 62.3157 114.369 62.565 114.369 62.873C114.369 63.027 114.391 63.1737 114.435 63.313C114.487 63.4523 114.578 63.6063 114.71 63.775C114.85 63.9437 115.04 64.1563 115.282 64.413L119.352 68.604L118.901 69.121Z" fill="#2A332F"/>
<path d="M103.08 71.189C102.552 71.189 102.046 71.112 101.562 70.958C101.078 70.804 100.686 70.584 100.385 70.298L100.781 69.704C101.052 69.946 101.386 70.1367 101.782 70.276C102.185 70.4227 102.611 70.496 103.058 70.496C103.791 70.496 104.33 70.3237 104.675 69.979C105.02 69.6417 105.192 69.1137 105.192 68.395V66.954L105.302 65.964L105.225 64.974V63.225H105.973V68.296C105.973 69.2933 105.727 70.023 105.236 70.485C104.752 70.9543 104.033 71.189 103.08 71.189ZM102.937 68.78C102.387 68.78 101.892 68.6627 101.452 68.428C101.012 68.186 100.664 67.8523 100.407 67.427C100.158 67.0017 100.033 66.514 100.033 65.964C100.033 65.414 100.158 64.93 100.407 64.512C100.664 64.0867 101.012 63.7567 101.452 63.522C101.892 63.2873 102.387 63.17 102.937 63.17C103.45 63.17 103.912 63.2763 104.323 63.489C104.734 63.7017 105.06 64.017 105.302 64.435C105.544 64.853 105.665 65.3627 105.665 65.964C105.665 66.5653 105.544 67.075 105.302 67.493C105.06 67.911 104.734 68.23 104.323 68.45C103.912 68.67 103.45 68.78 102.937 68.78ZM103.014 68.087C103.439 68.087 103.817 67.999 104.147 67.823C104.477 67.6397 104.737 67.3903 104.928 67.075C105.119 66.7523 105.214 66.382 105.214 65.964C105.214 65.546 105.119 65.1793 104.928 64.864C104.737 64.5487 104.477 64.303 104.147 64.127C103.817 63.9437 103.439 63.852 103.014 63.852C102.596 63.852 102.218 63.9437 101.881 64.127C101.551 64.303 101.291 64.5487 101.1 64.864C100.917 65.1793 100.825 65.546 100.825 65.964C100.825 66.382 100.917 66.7523 101.1 67.075C101.291 67.3903 101.551 67.6397 101.881 67.823C102.218 67.999 102.596 68.087 103.014 68.087Z" fill="#2A332F"/>
<path d="M92.0826 69V63.225H92.8306V64.809L92.7095 64.512C92.8929 64.094 93.1862 63.7677 93.5896 63.533C93.9929 63.291 94.4732 63.17 95.0305 63.17C95.4999 63.17 95.9106 63.2617 96.2626 63.445C96.6219 63.621 96.9005 63.8923 97.0985 64.259C97.3039 64.6257 97.4065 65.0877 97.4065 65.645V69H96.6255V65.722C96.6255 65.1133 96.4716 64.655 96.1636 64.347C95.8629 64.0317 95.4376 63.874 94.8876 63.874C94.4769 63.874 94.1176 63.9583 93.8096 64.127C93.5089 64.2883 93.2742 64.5267 93.1055 64.842C92.9442 65.15 92.8635 65.524 92.8635 65.964V69H92.0826Z" fill="#2A332F"/>
<path d="M88.0285 69V63.225H88.8094V69H88.0285ZM88.4245 61.949C88.2631 61.949 88.1274 61.894 88.0174 61.784C87.9074 61.674 87.8524 61.542 87.8524 61.388C87.8524 61.234 87.9074 61.1057 88.0174 61.003C88.1274 60.893 88.2631 60.838 88.4245 60.838C88.5858 60.838 88.7215 60.8893 88.8315 60.992C88.9415 61.0947 88.9964 61.223 88.9964 61.377C88.9964 61.5383 88.9415 61.674 88.8315 61.784C88.7288 61.894 88.5931 61.949 88.4245 61.949Z" fill="#2A332F"/>
<path d="M79.4949 69V60.838H80.2759V64.809L80.1219 64.512C80.3052 64.094 80.5985 63.7677 81.0019 63.533C81.4052 63.291 81.8855 63.17 82.4429 63.17C82.9122 63.17 83.3229 63.2617 83.6749 63.445C84.0342 63.621 84.3129 63.8923 84.5109 64.259C84.7162 64.6257 84.8189 65.0877 84.8189 65.645V69H84.0379V65.722C84.0379 65.1133 83.8839 64.655 83.5759 64.347C83.2752 64.0317 82.8499 63.874 82.2999 63.874C81.8892 63.874 81.5299 63.9583 81.2219 64.127C80.9212 64.2883 80.6865 64.5267 80.5179 64.842C80.3565 65.15 80.2759 65.524 80.2759 65.964V69H79.4949Z" fill="#2A332F"/>
<path d="M74.6806 69.055C74.1086 69.055 73.5952 68.9303 73.1406 68.681C72.6932 68.4243 72.3412 68.076 72.0846 67.636C71.8279 67.1887 71.6996 66.679 71.6996 66.107C71.6996 65.5277 71.8279 65.018 72.0846 64.578C72.3412 64.138 72.6932 63.7933 73.1406 63.544C73.5952 63.2947 74.1086 63.17 74.6806 63.17C75.1719 63.17 75.6156 63.2653 76.0116 63.456C76.4076 63.6467 76.7192 63.9327 76.9466 64.314L76.3636 64.71C76.1656 64.4167 75.9199 64.2003 75.6266 64.061C75.3332 63.9217 75.0142 63.852 74.6696 63.852C74.2589 63.852 73.8886 63.9473 73.5586 64.138C73.2286 64.3213 72.9682 64.5817 72.7776 64.919C72.5869 65.2563 72.4916 65.6523 72.4916 66.107C72.4916 66.5617 72.5869 66.9577 72.7776 67.295C72.9682 67.6323 73.2286 67.8963 73.5586 68.087C73.8886 68.2703 74.2589 68.362 74.6696 68.362C75.0142 68.362 75.3332 68.2923 75.6266 68.153C75.9199 68.0137 76.1656 67.801 76.3636 67.515L76.9466 67.911C76.7192 68.285 76.4076 68.571 76.0116 68.769C75.6156 68.9597 75.1719 69.055 74.6806 69.055Z" fill="#2A332F"/>
<path d="M68.3133 69V67.724L68.2803 67.515V65.381C68.2803 64.8897 68.1409 64.512 67.8623 64.248C67.5909 63.984 67.1839 63.852 66.6413 63.852C66.2673 63.852 65.9116 63.9143 65.5743 64.039C65.2369 64.1637 64.9509 64.3287 64.7163 64.534L64.3643 63.951C64.6576 63.7017 65.0096 63.511 65.4203 63.379C65.8309 63.2397 66.2636 63.17 66.7183 63.17C67.4663 63.17 68.0419 63.357 68.4453 63.731C68.8559 64.0977 69.0613 64.6587 69.0613 65.414V69H68.3133ZM66.3223 69.055C65.8896 69.055 65.5119 68.9853 65.1893 68.846C64.8739 68.6993 64.6319 68.5013 64.4633 68.252C64.2946 67.9953 64.2103 67.702 64.2103 67.372C64.2103 67.0713 64.2799 66.8 64.4193 66.558C64.5659 66.3087 64.8006 66.1107 65.1233 65.964C65.4533 65.81 65.8933 65.733 66.4433 65.733H68.4343V66.316H66.4653C65.9079 66.316 65.5193 66.415 65.2993 66.613C65.0866 66.811 64.9803 67.0567 64.9803 67.35C64.9803 67.68 65.1086 67.944 65.3653 68.142C65.6219 68.34 65.9813 68.439 66.4433 68.439C66.8833 68.439 67.2609 68.34 67.5763 68.142C67.8989 67.9367 68.1336 67.6433 68.2803 67.262L68.4563 67.801C68.3096 68.1823 68.0529 68.4867 67.6863 68.714C67.3269 68.9413 66.8723 69.055 66.3223 69.055Z" fill="#2A332F"/>
<path d="M59.084 69.055C58.5267 69.055 58.0244 68.9303 57.577 68.681C57.137 68.4243 56.7887 68.076 56.532 67.636C56.2754 67.1887 56.147 66.679 56.147 66.107C56.147 65.5277 56.2754 65.018 56.532 64.578C56.7887 64.138 57.137 63.7933 57.577 63.544C58.017 63.2947 58.5194 63.17 59.084 63.17C59.656 63.17 60.162 63.2947 60.602 63.544C61.0494 63.7933 61.3977 64.138 61.647 64.578C61.9037 65.018 62.032 65.5277 62.032 66.107C62.032 66.679 61.9037 67.1887 61.647 67.636C61.3977 68.076 61.0494 68.4243 60.602 68.681C60.1547 68.9303 59.6487 69.055 59.084 69.055ZM59.084 68.362C59.502 68.362 59.8724 68.2703 60.195 68.087C60.5177 67.8963 60.7707 67.6323 60.954 67.295C61.1447 66.9503 61.24 66.5543 61.24 66.107C61.24 65.6523 61.1447 65.2563 60.954 64.919C60.7707 64.5817 60.5177 64.3213 60.195 64.138C59.8724 63.9473 59.5057 63.852 59.095 63.852C58.6843 63.852 58.3177 63.9473 57.995 64.138C57.6724 64.3213 57.4157 64.5817 57.225 64.919C57.0344 65.2563 56.939 65.6523 56.939 66.107C56.939 66.5543 57.0344 66.9503 57.225 67.295C57.4157 67.6323 57.6724 67.8963 57.995 68.087C58.3177 68.2703 58.6807 68.362 59.084 68.362Z" fill="#2A332F"/>
<path d="M51.598 69.066C51.0187 69.066 50.4833 68.9707 49.992 68.78C49.5007 68.582 49.0753 68.307 48.716 67.955C48.3567 67.603 48.0743 67.1887 47.869 66.712C47.671 66.2353 47.572 65.7147 47.572 65.15C47.572 64.5853 47.671 64.0647 47.869 63.588C48.0743 63.1113 48.3567 62.697 48.716 62.345C49.0827 61.993 49.5117 61.7217 50.003 61.531C50.4943 61.333 51.0297 61.234 51.609 61.234C52.1663 61.234 52.6907 61.3293 53.182 61.52C53.6733 61.7033 54.0877 61.982 54.425 62.356L53.908 62.873C53.5927 62.5503 53.2443 62.3193 52.863 62.18C52.4817 62.0333 52.071 61.96 51.631 61.96C51.169 61.96 50.74 62.0407 50.344 62.202C49.948 62.356 49.6033 62.5797 49.31 62.873C49.0167 63.159 48.7857 63.4963 48.617 63.885C48.4557 64.2663 48.375 64.688 48.375 65.15C48.375 65.612 48.4557 66.0373 48.617 66.426C48.7857 66.8073 49.0167 67.1447 49.31 67.438C49.6033 67.724 49.948 67.9477 50.344 68.109C50.74 68.263 51.169 68.34 51.631 68.34C52.071 68.34 52.4817 68.2667 52.863 68.12C53.2443 67.9733 53.5927 67.7387 53.908 67.416L54.425 67.933C54.0877 68.307 53.6733 68.5893 53.182 68.78C52.6907 68.9707 52.1627 69.066 51.598 69.066Z" fill="#2A332F"/>
</svg>
